PathFileType	4	(X/Y/Z)	 s08c0202.trc
DataRate	CameraRate	NumFrames	NumMarkers	Units	OrigDataRate	OrigDataStartFrame	OrigNumFrames
200	200	4	50	mm	200	501	2000
Frame#	Time	racr			lacr			c7			jug			rlel			rdr			llel			ldr			s2			lic			ric			lasi			rasi			rpsi			lpsi			rgt			lgt			rth1			rth2			rth3			rth4			rlfc			rmfc			rsh1			rsh2			rsh3			rsh4			rlmal			rmmal			rcal			rtoe			rmt5			lth1			lth2			lth4			lth3			llfc			lmfc			llmal			lmmal			lcal			lmt5			lsh1			lsh2			lsh3			lsh4			ltoe			SBIKE			LBIKE			RBIKE			
		X1	Y1	Z1	X2	Y2	Z2	X3	Y3	Z3	X4	Y4	Z4	X5	Y5	Z5	X6	Y6	Z6	X7	Y7	Z7	X8	Y8	Z8	X9	Y9	Z9	X10	Y10	Z10	X11	Y11	Z11	X12	Y12	Z12	X13	Y13	Z13	X14	Y14	Z14	X15	Y15	Z15	X16	Y16	Z16	X17	Y17	Z17	X18	Y18	Z18	X19	Y19	Z19	X20	Y20	Z20	X21	Y21	Z21	X22	Y22	Z22	X23	Y23	Z23	X24	Y24	Z24	X25	Y25	Z25	X26	Y26	Z26	X27	Y27	Z27	X28	Y28	Z28	X29	Y29	Z29	X30	Y30	Z30	X31	Y31	Z31	X32	Y32	Z32	X33	Y33	Z33	X34	Y34	Z34	X35	Y35	Z35	X36	Y36	Z36	X37	Y37	Z37	X38	Y38	Z38	X39	Y39	Z39	X40	Y40	Z40	X41	Y41	Z41	X42	Y42	Z42	X43	Y43	Z43	X44	Y44	Z44	X45	Y45	Z45	X46	Y46	Z46	X47	Y47	Z47	X48	Y48	Z48	X49	Y49	Z49	X50	Y50	Z50	
501	2.5050	555.994441	1368.559826	-102.712938	548.380798	1309.445037	-459.125291	534.547262	1437.467163	-297.238413	487.793718	1287.702139	-293.651114	534.946423	1134.427380	36.450653	717.105548	926.070951	-58.695708	504.018355	1034.446474	-519.864427	735.374438	935.252697	-417.779902	-14.589245	1227.658169	-223.203528	138.366459	1202.867090	-370.255318	150.555765	1240.326101	-58.076494	173.440004	1172.462750	-328.471704	163.418654	1173.133352	-90.242315	17.097644	1270.963729	-171.236505	18.590679	1266.483463	-266.024690	64.870929	1129.488029	-18.105225	96.621746	1104.400121	-399.966298	195.305597	1011.768463	-16.178319	273.915424	969.798055	-20.363333	318.642816	895.179367	-24.841715	296.995238	994.752135	-33.798263	387.316705	805.186272	-38.035075	372.638573	796.864884	-151.406529	285.227773	720.699673	-12.404468	245.223672	643.935349	-38.804731	173.564597	597.354735	-47.027182	270.256441	629.687971	-66.269823	88.687278	516.138926	-58.230488	116.662401	523.723766	-143.837574	11.258611	538.623120	-106.330395	238.700761	343.158142	-100.130735	148.076330	376.630436	-35.350460	174.507753	993.126867	-406.985901	242.979993	938.921992	-401.714175	270.830695	959.992699	-391.424314	275.497845	856.183508	-399.709714	337.540192	744.558031	-377.994725	328.902493	713.835597	-276.485672	312.334520	325.272922	-398.874476	344.704693	355.643411	-325.102661	246.840075	295.383304	-366.136096	459.451002	249.169127	-413.027529	331.954207	615.300557	-409.585574	347.311945	531.897147	-395.233848	323.314645	447.177086	-401.335789	364.906956	533.219391	-359.441448	535.258687	285.079206	-340.238520	-186.465204	922.537766	-234.799425	18.507385	83.628202	-425.960951	11.564949	80.311445	-27.619428	
502	2.5100	555.334807	1370.939170	-100.104042	549.170655	1313.941396	-457.543671	534.085158	1441.647327	-294.952629	488.008141	1291.658694	-292.750538	535.074075	1134.999571	36.345587	718.623521	926.974226	-57.842065	505.512814	1038.915202	-519.440152	735.734130	936.155957	-417.256476	-13.673129	1227.193191	-224.882548	140.442734	1202.224684	-371.384184	150.217289	1242.173434	-59.587253	175.325037	1172.326037	-329.288033	164.061346	1175.180128	-91.523884	17.500718	1270.673354	-173.318379	19.341360	1265.633470	-267.971121	66.131022	1130.628947	-18.797109	97.913882	1102.649009	-400.393818	197.703551	1014.190923	-16.114061	276.801476	973.251051	-20.012600	322.538186	899.335944	-24.493551	299.584951	998.324627	-33.412532	392.147008	810.113373	-37.832876	377.526474	801.132141	-150.110982	289.797239	726.261681	-12.264767	249.285773	649.646630	-38.664188	177.382605	603.518761	-46.857002	274.324040	635.213432	-66.072943	92.121012	522.823944	-58.200297	120.131091	530.255013	-143.712750	14.657481	545.414655	-106.121720	241.812939	349.595157	-100.163368	151.261454	383.197447	-35.322901	174.588590	990.675940	-407.882955	242.198448	935.391009	-402.896189	270.459540	956.052068	-392.463636	273.396795	852.257184	-401.114889	333.906909	739.641411	-379.317107	325.238567	709.211926	-277.936473	310.583569	320.405039	-399.284909	343.113790	350.731292	-325.610262	245.206715	291.826707	-366.522852	457.148521	242.241194	-412.923810	328.532019	610.379363	-410.926843	344.404440	527.185780	-396.843406	320.942716	442.159088	-402.171564	362.113144	528.629852	-360.780409	533.405703	276.994783	-340.134341	-186.502327	922.579879	-234.750174	18.525620	83.621060	-425.924762	11.552122	80.337967	-27.615593	
503	2.5150	554.721486	1373.151787	-97.426442	549.775620	1318.498591	-455.096889	533.365267	1445.485412	-292.319597	488.284857	1295.193366	-291.427155	535.220564	1135.361878	36.396674	720.320244	927.963867	-56.889333	507.045302	1043.709541	-519.278909	736.022532	936.918035	-416.567662	-12.945397	1226.599895	-226.407092	142.687092	1202.066071	-372.623782	149.782382	1243.949381	-61.011235	177.038584	1171.862836	-329.395337	164.691304	1177.115306	-92.551606	17.896330	1270.313431	-175.154405	20.117136	1264.835974	-269.865064	67.367512	1131.707368	-19.572853	99.162452	1101.013879	-400.790986	199.997287	1016.532789	-16.038614	279.678895	976.667615	-19.620650	326.497730	903.293492	-24.331092	302.100388	1002.064292	-32.840835	397.026152	815.106367	-37.791082	382.286750	805.395736	-148.782434	294.381879	731.867559	-12.340440	253.474685	655.334149	-38.613536	181.250583	609.761924	-46.733388	278.062521	640.796295	-66.168684	95.623189	529.286816	-58.282843	123.699981	536.758800	-143.710489	18.117228	551.999254	-106.079237	245.054678	355.960368	-100.243791	154.648642	389.607747	-35.404818	174.613776	988.294407	-408.865249	241.373022	931.955966	-404.011589	269.955904	952.110842	-393.716206	271.169116	848.347964	-402.382759	330.103066	734.906772	-380.764693	321.339058	705.000906	-279.276610	308.684793	315.718827	-399.805286	341.524457	346.065465	-326.414390	243.340822	288.427111	-366.998321	454.616804	235.480439	-412.911836	324.829703	605.448381	-412.233686	341.357620	522.373618	-397.652787	318.356200	437.292806	-403.132116	359.311817	524.250887	-362.127859	531.194011	269.038866	-339.885622	-186.348716	922.667803	-234.641734	18.554674	83.622131	-425.931554	11.598457	80.349080	-27.633075	
504	2.5200	554.154035	1375.159638	-94.796248	550.420208	1323.449058	-453.358657	532.735778	1449.675189	-289.742287	488.526655	1299.136480	-290.517347	535.408829	1135.597223	36.645958	722.159272	929.053847	-55.843589	508.793983	1048.740229	-519.110112	736.270940	937.718500	-415.867400	-12.389934	1226.327844	-227.604362	144.870309	1201.772080	-373.783551	149.287280	1245.475342	-62.359757	178.755744	1171.442902	-329.767654	165.278778	1178.901801	-93.666140	18.305710	1270.103805	-177.017000	20.820242	1264.029210	-271.711909	68.526177	1132.668240	-20.331300	100.335113	1099.387180	-401.215013	202.205762	1018.860056	-15.997609	282.458163	980.017413	-19.209299	330.343363	907.350006	-23.912985	304.567235	1005.784122	-32.321623	401.819361	820.124337	-37.871920	386.866614	809.629008	-147.383533	298.989850	737.361403	-12.513832	257.666587	661.071020	-38.684512	185.176471	615.807036	-46.687663	282.245449	646.383798	-66.133477	99.281405	535.590057	-58.444345	127.368122	543.117134	-143.656543	21.640337	558.324167	-106.105913	248.644459	362.383248	-100.322833	158.249488	396.132478	-35.390836	174.541254	986.057076	-409.755103	240.412270	928.602600	-405.166344	269.294139	948.290254	-395.009472	268.636100	844.473015	-403.209318	326.134672	730.337106	-382.175253	317.276096	701.016874	-280.728755	306.529701	311.201545	-400.362747	338.952780	341.673638	-326.658527	241.389766	285.300057	-367.623413	451.855931	228.720376	-412.875479	321.004785	600.860394	-413.675777	338.098479	517.894054	-399.002912	315.537908	432.675977	-404.173530	356.192969	519.989299	-363.648958	528.870904	261.091540	-339.697095	-186.255830	922.700718	-234.726715	18.552674	83.657722	-425.953671	11.591479	80.388652	-27.629022	
